<svg xmlns="http://www.w3.org/2000/svg" viewBox="0 0 64 64" fill="none">
  <defs>
    <linearGradient id="g" x1="0" y1="0" x2="1" y2="1">
      <stop offset="0" stop-color="#22c55e"/>
      <stop offset="1" stop-color="#16a34a"/>
    </linearGradient>
  </defs>
  <rect width="64" height="64" rx="12" fill="url(#g)"/>
  <g stroke="white" stroke-width="3" stroke-linecap="round" stroke-linejoin="round" fill="none">
    <path d="M32 48V20"/>
    <path d="M32 20c8 0 12 6 12 12 0 6-4 12-12 12-8 0-12-6-12-12 0-6 4-12 12-12z" opacity=".25" fill="#fff"/>
    <path d="M24 28c2-2 5-3 8-3M24 36c2 2 5 3 8 3M40 28c-2-2-5-3-8-3M40 36c-2 2-5 3-8 3"/>
    <path d="M20 44c4-1 8-3 12-6 4 3 8 5 12 6"/>
  </g>
</svg>
